<?xml version="1.0" encoding="UTF-8" standalone="no"?>
<!-- Created with Inkscape (http://www.inkscape.org/) -->

<svg
   width="512"
   height="512"
   viewBox="0 0 512 512"
   version="1.1"
   id="svg1"
   inkscape:version="1.4.2 (ebf0e940d0, 2025-05-08)"
   sodipodi:docname="ot-icon.svg"
   xmlns:inkscape="http://www.inkscape.org/namespaces/inkscape"
   xmlns:sodipodi="http://sodipodi.sourceforge.net/DTD/sodipodi-0.dtd"
   xmlns:xlink="http://www.w3.org/1999/xlink"
   xmlns="http://www.w3.org/2000/svg"
   xmlns:svg="http://www.w3.org/2000/svg">
  <sodipodi:namedview
     id="namedview1"
     pagecolor="#505050"
     bordercolor="#eeeeee"
     borderopacity="1"
     inkscape:showpageshadow="0"
     inkscape:pageopacity="0"
     inkscape:pagecheckerboard="0"
     inkscape:deskcolor="#505050"
     inkscape:document-units="px"
     inkscape:zoom="1.5585938"
     inkscape:cx="255.6792"
     inkscape:cy="256"
     inkscape:window-width="1920"
     inkscape:window-height="980"
     inkscape:window-x="1280"
     inkscape:window-y="28"
     inkscape:window-maximized="1"
     inkscape:current-layer="layer3" />
  <defs
     id="defs1">
    <linearGradient
       id="linearGradient3"
       inkscape:collect="always">
      <stop
         style="stop-color:#574325;stop-opacity:1;"
         offset="0"
         id="stop3" />
      <stop
         style="stop-color:#6d4325;stop-opacity:1;"
         offset="1"
         id="stop4" />
    </linearGradient>
    <linearGradient
       inkscape:collect="always"
       xlink:href="#linearGradient3"
       id="linearGradient4"
       x1="135.94485"
       y1="292.89223"
       x2="418.401"
       y2="292.89223"
       gradientUnits="userSpaceOnUse"
       gradientTransform="matrix(1.2901577,0,0,1.2901577,-101.5968,-121.87717)" />
  </defs>
  <g
     inkscape:label="Layer 1"
     inkscape:groupmode="layer"
     id="layer1" />
  <g
     inkscape:groupmode="layer"
     id="layer3"
     inkscape:label="School">
    <rect
       style="fill:url(#linearGradient4);fill-opacity:1;stroke:#000000;stroke-width:5.16063;stroke-linejoin:bevel"
       id="rect1"
       width="359.25235"
       height="290.54739"
       x="76.373825"
       y="110.7263"
       inkscape:label="box" />
    <rect
       style="fill:#ffffff;fill-opacity:1;stroke:#000000;stroke-width:5.22395;stroke-linejoin:bevel"
       id="rect2"
       width="466.6431"
       height="119.96339"
       x="22.678452"
       y="196.01831"
       inkscape:label="tunnel" />
    <path
       d="m 287.00709,245.78352 h -5.46581 v -15.32476 c 0,0 0,-25.54127 -25.54131,-25.54127 -25.54126,0 -25.54126,25.54127 -25.54126,25.54127 v 15.32476 h -5.46585 a 9.8589271,9.8589271 0 0 0 -9.8589,9.85892 v 41.63221 a 9.8589271,9.8589271 0 0 0 9.8589,9.80785 h 62.01423 a 9.8589271,9.8589271 0 0 0 9.85895,-9.85892 v -41.58114 a 9.8589271,9.8589271 0 0 0 -9.85895,-9.85892 z m -31.00712,40.86597 a 10.216505,10.216505 0 1 1 10.21654,-10.21652 10.216505,10.216505 0 0 1 -10.21654,10.21652 z m 15.32481,-40.86597 h -30.64957 v -12.77064 c 0,-7.66237 0,-17.8789 15.32476,-17.8789 15.32481,0 15.32481,10.21653 15.32481,17.8789 z"
       id="path1"
       style="stroke-width:5.10826" />
    <g
       id="g4"
       inkscape:label="school"
       transform="matrix(1.2901577,0,0,1.2901577,-256.8364,45.40576)">
      <rect
         x="340.466"
         y="73.467003"
         style="fill:#352200"
         width="114.066"
         height="2.9519999"
         id="rect2-0" />
      <polygon
         style="fill:#d3d5d6"
         points="61.74,111.409 61.74,153.814 173.259,153.814 173.259,111.409 133.269,111.409 133.269,85.643 117.5,75.444 117.499,75.444 101.73,85.643 101.73,111.409 "
         id="polygon2"
         transform="translate(280,-35)" />
      <rect
         x="390.18799"
         y="99.222"
         style="fill:#352200"
         width="14.625"
         height="19.593"
         id="rect3-4" />
      <circle
         style="fill:#352200"
         cx="397.5"
         cy="62.452003"
         r="10.735"
         id="circle3" />
      <circle
         style="fill:#ffffff"
         cx="397.5"
         cy="62.452003"
         r="9.1090002"
         id="circle4" />
      <path
         style="fill:#352200"
         d="m 396.698,55.62 v 6.555 h -6.555 v 1.92 h 7.515 v 0 c 0.529,-0.001 0.959,-0.43 0.959,-0.96 h 10e-4 V 55.62 Z"
         id="path4" />
      <polygon
         style="fill:#352200"
         points="100.684,82.305 100.684,87.653 117.5,77.494 134.316,87.653 134.316,82.305 117.5,72.126 "
         id="polygon4"
         transform="translate(280,-35)" />
      <g
         id="g9"
         transform="translate(280,-35)">
		<rect
   x="65.498001"
   y="115.703"
   style="fill:#8fbdcf"
   width="9.6619997"
   height="12.749"
   id="rect4" />

		<rect
   x="78.917999"
   y="115.703"
   style="fill:#8fbdcf"
   width="9.6619997"
   height="12.749"
   id="rect5" />

		<rect
   x="92.336998"
   y="115.703"
   style="fill:#8fbdcf"
   width="9.6619997"
   height="12.749"
   id="rect6" />

		<rect
   x="65.498001"
   y="135.295"
   style="fill:#8fbdcf"
   width="9.6619997"
   height="12.749"
   id="rect7" />

		<rect
   x="78.917999"
   y="135.295"
   style="fill:#8fbdcf"
   width="9.6619997"
   height="12.749"
   id="rect8" />

		<rect
   x="92.336998"
   y="135.295"
   style="fill:#8fbdcf"
   width="9.6619997"
   height="12.749"
   id="rect9" />

	</g>
      <g
         id="g15"
         transform="translate(280,-35)">
		<rect
   x="130.985"
   y="115.703"
   style="fill:#8fbdcf"
   width="9.6619997"
   height="12.749"
   id="rect10" />

		<rect
   x="144.405"
   y="115.703"
   style="fill:#8fbdcf"
   width="9.6619997"
   height="12.749"
   id="rect11" />

		<rect
   x="157.825"
   y="115.703"
   style="fill:#8fbdcf"
   width="9.6619997"
   height="12.749"
   id="rect12" />

		<rect
   x="130.985"
   y="135.295"
   style="fill:#8fbdcf"
   width="9.6619997"
   height="12.749"
   id="rect13" />

		<rect
   x="144.405"
   y="135.295"
   style="fill:#8fbdcf"
   width="9.6619997"
   height="12.749"
   id="rect14" />

		<rect
   x="157.825"
   y="135.295"
   style="fill:#8fbdcf"
   width="9.6619997"
   height="12.749"
   id="rect15" />

	</g>
    </g>
  </g>
</svg>
